# xmcd CD database file generated by OrangeCD 5.2
#
# Track frame offsets:
#	150
#	16942
#	28717
#	40037
#	60740
#	72462
#	88157
#	101457
#	114957
#	126610
#	143075
#	158757
#	172960
#	185162
#
# Disc length: 2625 seconds
#
# Revision: 1
# Processed by: cddbd v1.5.1PL0 Copyright (c) Steve Scherf et al.
# Submitted via: OrangeCD 5.2
#
DISCID=be0a3f0e
DTITLE=Reidar Larsen - You don't have to be black to be blue
DYEAR=1987
DGENRE=Blues
TTITLE0=Christina
TTITLE1=Little Lonely Girl
TTITLE2=Blue Baby
TTITLE3=Crawdad Hole
TTITLE4=Blondes, Brunettes And Redheads
TTITLE5=Blue News
TTITLE6=Mr. Blues Is Coming To Town
TTITLE7=Hole In The Wall
TTITLE8=You Don't Have To Be Black To Be Blue
TTITLE9=Living On A Line
TTITLE10=She Felt Too Good
TTITLE11=All Night Man
TTITLE12=Swanee River Boogie
TTITLE13=I'm A Blues Man
EXTD=
EXTT0=
EXTT1=
EXTT2=
EXTT3=
EXTT4=
EXTT5=
EXTT6=
EXTT7=
EXTT8=
EXTT9=
EXTT10=
EXTT11=
EXTT12=
EXTT13=
PLAYORDER=
